<svg xmlns="http://www.w3.org/2000/svg" xmlns:xlink="http://www.w3.org/1999/xlink" version="1.1" viewBox="0 0 256 256" xml:space="preserve">

<defs>
</defs>
<g style="stroke: none; stroke-width: 0; stroke-dasharray: none; stroke-linecap: butt; stroke-linejoin: miter; stroke-miterlimit: 10; fill: none; fill-rule: nonzero; opacity: 1;" transform="translate(1.4065934065934016 1.4065934065934016) scale(2.81 2.81)" >
	<path d="M 46 78.708 v -8.024 c 0 -0.553 -0.448 -1 -1 -1 s -1 0.447 -1 1 v 8.024 c -2.663 0.475 -4.693 2.802 -4.693 5.599 C 39.307 87.446 41.861 90 45 90 c 3.14 0 5.693 -2.554 5.693 -5.693 C 50.693 81.51 48.664 79.182 46 78.708 z M 45 88 c -2.036 0 -3.693 -1.657 -3.693 -3.693 s 1.657 -3.692 3.693 -3.692 s 3.693 1.656 3.693 3.692 S 47.036 88 45 88 z" style="stroke: none; stroke-width: 1; stroke-dasharray: none; stroke-linecap: butt; stroke-linejoin: miter; stroke-miterlimit: 10; fill: rgb(0,0,0); fill-rule: nonzero; opacity: 1;" transform=" matrix(1 0 0 1 0 0) " stroke-linecap="round" />
	<path d="M 32.272 65.725 c -0.552 0 -1 0.447 -1 1 v 7.301 h -5.948 c -0.475 -2.664 -2.802 -4.693 -5.599 -4.693 c -3.139 0 -5.693 2.554 -5.693 5.693 s 2.554 5.693 5.693 5.693 c 2.797 0 5.125 -2.03 5.599 -4.693 h 6.948 c 0.552 0 1 -0.447 1 -1 v -8.301 C 33.272 66.172 32.825 65.725 32.272 65.725 z M 19.726 78.719 c -2.036 0 -3.693 -1.657 -3.693 -3.693 s 1.657 -3.693 3.693 -3.693 s 3.693 1.657 3.693 3.693 S 21.762 78.719 19.726 78.719 z" style="stroke: none; stroke-width: 1; stroke-dasharray: none; stroke-linecap: butt; stroke-linejoin: miter; stroke-miterlimit: 10; fill: rgb(0,0,0); fill-rule: nonzero; opacity: 1;" transform=" matrix(1 0 0 1 0 0) " stroke-linecap="round" />
	<path d="M 70.274 69.332 c -2.798 0 -5.125 2.03 -5.6 4.693 h -5.947 v -7.301 c 0 -0.553 -0.447 -1 -1 -1 s -1 0.447 -1 1 v 8.301 c 0 0.553 0.447 1 1 1 h 6.947 c 0.475 2.664 2.802 4.693 5.6 4.693 c 3.14 0 5.693 -2.554 5.693 -5.693 S 73.414 69.332 70.274 69.332 z M 70.274 78.719 c -2.036 0 -3.693 -1.657 -3.693 -3.693 s 1.657 -3.693 3.693 -3.693 s 3.693 1.657 3.693 3.693 S 72.311 78.719 70.274 78.719 z" style="stroke: none; stroke-width: 1; stroke-dasharray: none; stroke-linecap: butt; stroke-linejoin: miter; stroke-miterlimit: 10; fill: rgb(0,0,0); fill-rule: nonzero; opacity: 1;" transform=" matrix(1 0 0 1 0 0) " stroke-linecap="round" />
	<path d="M 69.204 20.636 h -0.306 C 68.134 9.17 58.448 0 46.863 0 h -3.727 C 31.552 0 21.866 9.17 21.101 20.636 h -0.305 c -9.724 0 -17.634 7.911 -17.634 17.634 s 7.911 17.635 17.634 17.635 h 10.477 v 4.232 c 0 0.553 0.448 1 1 1 s 1 -0.447 1 -1 v -4.232 H 44 v 8.035 c 0 0.553 0.448 1 1 1 s 1 -0.447 1 -1 v -8.035 h 10.728 v 4.232 c 0 0.553 0.447 1 1 1 s 1 -0.447 1 -1 v -4.232 h 10.477 c 9.724 0 17.635 -7.911 17.635 -17.635 S 78.928 20.636 69.204 20.636 z M 69.204 53.905 H 20.796 c -8.621 0 -15.634 -7.014 -15.634 -15.635 c 0 -8.621 7.014 -15.634 15.634 -15.634 h 1.261 c 0.544 0 0.988 -0.435 1 -0.978 C 23.295 10.819 32.303 2 43.137 2 h 3.727 c 10.834 0 19.842 8.819 20.079 19.658 c 0.012 0.543 0.456 0.978 1 0.978 h 1.262 c 8.621 0 15.635 7.014 15.635 15.634 C 84.839 46.892 77.825 53.905 69.204 53.905 z" style="stroke: none; stroke-width: 1; stroke-dasharray: none; stroke-linecap: butt; stroke-linejoin: miter; stroke-miterlimit: 10; fill: rgb(0,0,0); fill-rule: nonzero; opacity: 1;" transform=" matrix(1 0 0 1 0 0) " stroke-linecap="round" />
</g>
</svg>