<?xml version="1.0" encoding="utf-8"?>
<!-- Uploaded to: SVG Repo, www.svgrepo.com, Generator: SVG Repo Mixer Tools -->
<svg viewBox="0 0 1024 1024" fill="#000000" class="icon"  version="1.1" xmlns="http://www.w3.org/2000/svg"><path d="M664.332 464.034c-4.402 0-8.054-3.576-8.054-7.994s3.496-7.996 7.898-7.996h0.156a8 8 0 0 1 7.996 7.996 8 8 0 0 1-7.996 7.994zM600.378 288.16c-4.402 0-8.058-3.576-8.058-7.994 0-4.42 3.5-7.996 7.902-7.996h0.156a8.002 8.002 0 0 1 7.996 7.996 8 8 0 0 1-7.996 7.994zM440.494 64.32c-4.412 0-8.072-3.576-8.072-7.994s3.498-7.994 7.916-7.994h0.156c4.418 0 7.994 3.576 7.994 7.994s-3.576 7.994-7.994 7.994zM615.898 991.658H408.04a7.99 7.99 0 0 1-5.652-2.342l-31.978-31.978a7.984 7.984 0 0 1-2.342-5.652v-111.92a7.99 7.99 0 0 1 7.996-7.994h271.812a8 8 0 0 1 7.996 7.994v111.92a7.982 7.982 0 0 1-2.344 5.652l-31.976 31.978a7.998 7.998 0 0 1-5.654 2.342z m-204.548-15.99h201.24l27.292-27.292V847.76H384.056v100.616l27.294 27.292z" fill="" /><path d="M360.066 895.726a8 8 0 0 1-7.978-7.574 8 8 0 0 1 7.564-8.398l303.774-15.988c4.562-0.36 8.184 3.152 8.402 7.556 0.25 4.402-3.152 8.166-7.558 8.4l-303.774 15.988c-0.142 0.016-0.29 0.016-0.43 0.016zM360.066 943.692a7.996 7.996 0 0 1-7.978-7.572 8 8 0 0 1 7.564-8.4l303.774-15.988c4.562-0.484 8.184 3.154 8.402 7.556 0.25 4.404-3.152 8.166-7.558 8.4l-303.774 15.988c-0.142 0.016-0.29 0.016-0.43 0.016zM647.876 847.76H376.062a7.992 7.992 0 0 1-7.996-7.994v-49.542c-80.184-50.122-127.908-135.856-127.908-230.258a7.99 7.99 0 0 1 7.994-7.994 7.99 7.99 0 0 1 7.994 7.994c0 90.25 46.374 172.098 124.044 218.954a7.986 7.986 0 0 1 3.864 6.84v46.014H639.88V785.76a7.98 7.98 0 0 1 3.872-6.84c77.664-46.856 124.036-128.704 124.036-218.954a7.98 7.98 0 0 1 7.996-7.994 8 8 0 0 1 7.992 7.994c0 94.402-47.714 180.136-127.906 230.258v49.542a7.996 7.996 0 0 1-7.994 7.994zM511.966 1023.634c-60.208 0-78.36-34.912-79.1-36.396a7.996 7.996 0 0 1 3.576-10.726c3.928-1.982 8.69-0.39 10.696 3.514 0.632 1.202 15.138 27.622 64.83 27.622 49.752 0 64.242-26.498 64.834-27.622 2.032-3.874 6.84-5.434 10.742-3.436 3.906 2 5.496 6.73 3.532 10.648-0.752 1.484-18.896 36.396-79.11 36.396z" fill="" /><path d="M248.154 567.96a7.99 7.99 0 0 1-7.994-7.996c0-88.374 43.132-171.502 115.386-222.386a7.99 7.99 0 0 1 11.14 1.936 8.006 8.006 0 0 1-1.928 11.148c-68.006 47.888-108.61 126.128-108.61 209.302a7.99 7.99 0 0 1-7.994 7.996zM775.848 567.946a8.002 8.002 0 0 1-7.996-7.996c0-83.19-40.594-161.43-108.61-209.318a8.034 8.034 0 0 1-1.934-11.148 8.038 8.038 0 0 1 11.148-1.936c72.258 50.884 115.382 134.03 115.382 222.402a7.976 7.976 0 0 1-7.99 7.996z" fill="" /><path d="M519.96 368.102c-128.324 0-162.088-16.144-163.462-16.832a8 8 0 0 1-3.576-10.728c1.958-3.918 6.682-5.512 10.656-3.606 0.71 0.328 34.28 15.176 156.382 15.176 117.86 0 137.968-13.554 138.782-14.13 3.156-3.122 7.902-2.874 11.024 0.25 3.124 3.122 2.876 8.416-0.25 11.538-3.058 3.062-24.668 18.332-149.556 18.332z" fill="" /><path d="M359.894 352.472c-2.052 0-4.122-0.842-5.746-2.466-3.116-3.124-2.85-8.416 0.272-11.54 3.06-3.06 24.654-18.33 149.55-18.33 128.322 0 162.08 16.144 163.454 16.832a7.996 7.996 0 0 1 3.59 10.726c-1.968 3.934-6.778 5.496-10.648 3.608-0.718-0.328-34.29-15.178-156.396-15.178-117.846 0-137.98 13.552-138.786 14.13a7.4 7.4 0 0 1-5.29 2.218zM703.836 499.29c-7.058 0-14.082-1.374-19.578-4.122-6.496-3.248-18.332-3.248-24.828 0-10.96 5.496-28.168 5.496-39.128 0-6.492-3.248-18.328-3.248-24.824 0-10.96 5.496-28.168 5.496-39.128 0-6.496-3.248-18.332-3.248-24.824 0-10.954 5.48-28.168 5.48-39.13 0-6.496-3.248-18.332-3.248-24.81 0-10.976 5.496-28.168 5.496-39.144 0-6.502-3.248-18.338-3.248-24.81 0-10.992 5.48-28.182 5.48-39.144 0-6.496-3.248-18.316-3.248-24.81 0-10.992 5.496-28.176 5.496-39.152 0l-15.972-7.994a7.994 7.994 0 0 1-3.584-10.726 8 8 0 0 1 10.718-3.576l16.004 7.994c6.48 3.248 18.316 3.248 24.826 0 10.96-5.496 28.16-5.496 39.136 0 6.48 3.248 18.306 3.248 24.818 0 10.946-5.496 28.136-5.512 39.128 0 6.496 3.248 18.324 3.248 24.818 0 10.976-5.496 28.16-5.496 39.136 0 6.496 3.248 18.332 3.248 24.828 0 10.954-5.496 28.16-5.496 39.122 0 6.496 3.248 18.328 3.248 24.824 0 10.96-5.496 28.168-5.496 39.128 0 6.496 3.248 18.332 3.248 24.828 0 10.96-5.496 28.164-5.496 39.124 0 6.496 3.248 18.332 3.248 24.828 0l15.988-7.994a7.99 7.99 0 0 1 10.742 3.576 7.988 7.988 0 0 1-3.59 10.726l-15.988 7.994c-5.466 2.748-12.524 4.122-19.552 4.122zM471.994 815.784a7.99 7.99 0 0 1-7.994-7.994v-63.956a7.99 7.99 0 0 1 7.994-7.994 7.99 7.99 0 0 1 7.996 7.994v63.956a7.992 7.992 0 0 1-7.996 7.994zM551.946 815.784a7.98 7.98 0 0 1-7.996-7.994v-63.956a7.98 7.98 0 0 1 7.996-7.994 8 8 0 0 1 7.992 7.994v63.956a8 8 0 0 1-7.992 7.994z" fill="" /><path d="M472 751.828a8.008 8.008 0 0 1-6.252-2.996 8.006 8.006 0 0 1 1.25-11.242l39.972-31.978a8.036 8.036 0 0 1 11.242 1.25 8 8 0 0 1-1.25 11.24l-39.97 31.978a8.03 8.03 0 0 1-4.992 1.748z" fill="" /><path d="M551.946 751.828a7.956 7.956 0 0 1-4.996-1.748l-39.98-31.978a8.008 8.008 0 0 1-1.25-11.24 8.038 8.038 0 0 1 11.242-1.25l39.98 31.978a8.024 8.024 0 0 1 1.25 11.242 8.024 8.024 0 0 1-6.246 2.996zM551.946 719.852a7.98 7.98 0 0 1-7.996-7.994v-103.926a7.98 7.98 0 0 1 7.996-7.994 7.998 7.998 0 0 1 7.992 7.994v103.926a8 8 0 0 1-7.992 7.994zM471.994 719.852a7.99 7.99 0 0 1-7.994-7.994v-103.926a7.988 7.988 0 0 1 7.994-7.994 7.99 7.99 0 0 1 7.996 7.994v103.926a7.992 7.992 0 0 1-7.996 7.994z" fill="" /><path d="M471.994 615.926a7.99 7.99 0 0 1-7.994-7.994c0-17.628-14.34-31.978-31.976-31.978s-31.978 14.35-31.978 31.978c0 4.418-3.576 7.994-7.994 7.994s-7.994-3.576-7.994-7.994c0-26.452 21.516-47.966 47.966-47.966 26.45 0 47.966 21.516 47.966 47.966a7.992 7.992 0 0 1-7.996 7.994z" fill="" /><path d="M432.022 655.896c-26.45 0-47.966-21.516-47.966-47.964 0-4.42 3.576-7.994 7.994-7.994s7.994 3.574 7.994 7.994c0 17.626 14.34 31.976 31.978 31.976a7.99 7.99 0 0 1 7.994 7.994 7.988 7.988 0 0 1-7.994 7.994zM631.886 615.926a7.98 7.98 0 0 1-7.992-7.994c0-17.628-14.368-31.978-31.976-31.978-17.644 0-31.98 14.35-31.98 31.978a8 8 0 0 1-7.992 7.994 7.98 7.98 0 0 1-7.996-7.994c0-26.452 21.516-47.966 47.968-47.966 26.45 0 47.964 21.516 47.964 47.966a8 8 0 0 1-7.996 7.994z" fill="" /><path d="M591.918 655.896a7.978 7.978 0 0 1-7.996-7.994 7.98 7.98 0 0 1 7.996-7.994c17.61 0 31.976-14.35 31.976-31.976a7.976 7.976 0 0 1 7.992-7.994 8 8 0 0 1 7.996 7.994c0 26.448-21.514 47.964-47.964 47.964zM519.96 655.896h-15.99a7.99 7.99 0 0 1-7.996-7.994 7.99 7.99 0 0 1 7.996-7.994h15.99a7.988 7.988 0 0 1 7.992 7.994 7.986 7.986 0 0 1-7.992 7.994zM344.084 256.182c-30.854 0-55.96-25.108-55.96-55.96 0-30.854 25.106-55.96 55.96-55.96s55.96 25.108 55.96 55.96c0 30.854-25.106 55.96-55.96 55.96z m0-95.932c-22.04 0-39.97 17.924-39.97 39.972s17.932 39.97 39.97 39.97 39.972-17.924 39.972-39.97-17.932-39.972-39.972-39.972zM408.04 448.044c-13.226 0-23.984-10.758-23.984-23.982s10.758-23.982 23.984-23.982c13.224 0 23.982 10.758 23.982 23.982s-10.758 23.982-23.982 23.982z m0-31.976a8.006 8.006 0 0 0-7.996 7.994 8.004 8.004 0 0 0 7.996 7.994 8.004 8.004 0 0 0 7.994-7.994 8.006 8.006 0 0 0-7.994-7.994zM679.852 208.216c-13.238 0-23.98-10.758-23.98-23.982 0-13.226 10.742-23.984 23.98-23.984 13.21 0 23.984 10.758 23.984 23.984 0 13.224-10.774 23.982-23.984 23.982z m0-31.976a8.008 8.008 0 0 0-7.992 7.994 8.008 8.008 0 0 0 7.992 7.994 8.01 8.01 0 0 0 7.996-7.994 8.008 8.008 0 0 0-7.996-7.994zM559.938 416.068c-17.64 0-31.984-14.35-31.984-31.976a8 8 0 0 1 15.996 0 15.99 15.99 0 0 0 15.988 15.988c8.808 0 15.988-7.166 15.988-15.988a7.982 7.982 0 0 1 7.996-7.996 8.002 8.002 0 0 1 7.996 7.996c0 17.626-14.368 31.976-31.98 31.976zM535.958 192.228c-22.048 0-39.98-17.926-39.98-39.972 0-22.046 17.932-39.972 39.98-39.972 22.046 0 39.968 17.924 39.968 39.972 0 22.046-17.922 39.972-39.968 39.972z m0-63.954c-13.234 0-23.992 10.758-23.992 23.984 0 13.224 10.756 23.984 23.992 23.984 13.208 0 23.98-10.758 23.98-23.984 0-13.226-10.774-23.984-23.98-23.984zM647.876 80.308a7.98 7.98 0 0 1-7.992-7.994V8.36a7.98 7.98 0 0 1 7.992-7.994 8 8 0 0 1 7.996 7.994v63.956a8 8 0 0 1-7.996 7.992z" fill="" /><path d="M663.864 48.3h-31.976a7.98 7.98 0 0 1-7.992-7.996 7.98 7.98 0 0 1 7.992-7.994h31.976a8 8 0 0 1 7.996 7.994 8 8 0 0 1-7.996 7.996zM471.994 288.16a7.99 7.99 0 0 1-7.994-7.994v-31.978a7.99 7.99 0 0 1 7.994-7.994 7.99 7.99 0 0 1 7.996 7.994v31.978a7.992 7.992 0 0 1-7.996 7.994z" fill="" /><path d="M487.982 272.14h-31.978c-4.418 0-7.994-3.576-7.994-7.994s3.576-7.994 7.994-7.994h31.978c4.418 0 7.994 3.576 7.994 7.994s-3.574 7.994-7.994 7.994z" fill="" /><path d="M296.12 96.296a7.99 7.99 0 0 1-7.994-7.994V56.326c0-4.418 3.576-7.994 7.994-7.994s7.996 3.576 7.996 7.994v31.978a7.992 7.992 0 0 1-7.996 7.992z" fill="" /><path d="M312.108 80.278h-31.978a7.992 7.992 0 0 1-7.996-7.994 7.99 7.99 0 0 1 7.996-7.996h31.978a7.99 7.99 0 0 1 7.994 7.996 7.99 7.99 0 0 1-7.994 7.994z" fill="" /></svg>