<?xml version="1.0" standalone="no"?>
<!DOCTYPE svg PUBLIC "-//W3C//DTD SVG 20010904//EN"
 "http://www.w3.org/TR/2001/REC-SVG-20010904/DTD/svg10.dtd">
<svg version="1.0" xmlns="http://www.w3.org/2000/svg"
 width="200.000000pt" height="200.000000pt" viewBox="0 0 200.000000 200.000000"
 preserveAspectRatio="xMidYMid meet">

<g transform="translate(0.000000,200.000000) scale(0.100000,-0.100000)"
fill="#000000" stroke="none">
<path d="M1190 1511 c-46 -15 -85 -39 -116 -73 -42 -44 -53 -68 -76 -158 -21
-84 -68 -164 -121 -204 -93 -71 -218 -93 -324 -57 -34 12 -65 21 -68 21 -3 0
-5 -126 -5 -280 l0 -280 260 0 260 0 0 210 c0 234 4 255 63 290 26 16 50 20
133 20 129 0 182 18 245 80 49 49 79 119 79 185 0 83 -66 187 -143 227 -45 22
-145 33 -187 19z"/>
</g>
</svg>
